<?xml version="1.0" encoding="UTF-8"?>
<svg xmlns="http://www.w3.org/2000/svg" xmlns:xlink="http://www.w3.org/1999/xlink" width="32pt" height="32pt" viewBox="0 0 32 32" version="1.1">
<g id="surface1">
<path style=" stroke:none;fill-rule:nonzero;fill:rgb(0%,0%,0%);fill-opacity:1;" d="M 26.609375 6.828125 C 26.570312 6.804688 26.53125 6.789062 26.492188 6.773438 C 26.179688 6.570312 25.828125 6.414062 25.46875 6.328125 L 24.753906 7.046875 L 24.0625 6.320312 C 24.0625 6.320312 24.058594 6.320312 24.058594 6.320312 C 23.714844 6.402344 23.378906 6.542969 23.070312 6.734375 C 22.996094 6.757812 22.921875 6.789062 22.847656 6.828125 C 22.402344 7.078125 21.980469 7.125 21.519531 6.980469 C 19.992188 6.503906 18.5625 4.167969 18.144531 3.3125 C 18.03125 3.082031 17.847656 2.910156 17.636719 2.804688 L 17.332031 2.703125 C 17.109375 2.664062 16.875 2.691406 16.660156 2.796875 C 16.105469 3.066406 15.875 3.730469 16.144531 4.285156 C 16.207031 4.417969 16.453125 4.902344 16.84375 5.519531 L 17.105469 5.917969 C 17.929688 7.109375 19.226562 8.59375 20.851562 9.105469 C 21.175781 9.207031 21.496094 9.265625 21.820312 9.28125 L 21.820312 15.140625 C 21.820312 15.445312 21.882812 15.726562 21.984375 15.988281 C 21.976562 16.042969 21.96875 16.097656 21.96875 16.152344 L 21.96875 26.804688 C 21.96875 27.53125 22.558594 28.121094 23.28125 28.121094 C 24.007812 28.121094 24.597656 27.53125 24.597656 26.804688 L 24.597656 17.664062 C 24.648438 17.667969 24.703125 17.671875 24.753906 17.671875 C 24.765625 17.671875 24.773438 17.671875 24.789062 17.671875 L 24.789062 26.804688 C 24.789062 27.53125 25.375 28.121094 26.101562 28.121094 C 26.828125 28.121094 27.417969 27.53125 27.417969 26.804688 L 27.417969 16.355469 C 27.488281 16.421875 27.5625 16.484375 27.652344 16.53125 C 27.820312 16.625 28.003906 16.664062 28.183594 16.664062 C 28.574219 16.664062 28.960938 16.453125 29.160156 16.082031 C 32.296875 10.316406 28.015625 7.691406 26.609375 6.828125 Z M 24.765625 12.71875 L 24.753906 12.71875 L 24.0625 11.769531 L 24.753906 7.148438 L 24.765625 7.148438 L 25.457031 11.769531 Z M 27.691406 13.976562 L 27.691406 10.796875 C 28.113281 11.601562 28.210938 12.617188 27.691406 13.976562 Z M 27.691406 13.976562 "/>
<path style=" stroke:none;fill-rule:nonzero;fill:rgb(0%,0%,0%);fill-opacity:1;" d="M 24.753906 0.429688 C 26.339844 0.429688 27.621094 1.710938 27.621094 3.292969 C 27.621094 4.875 26.335938 6.15625 24.753906 6.15625 C 23.171875 6.15625 21.890625 4.875 21.890625 3.292969 C 21.890625 1.710938 23.175781 0.429688 24.753906 0.429688 Z M 24.753906 0.429688 "/>
<path style=" stroke:none;fill-rule:nonzero;fill:rgb(0%,0%,0%);fill-opacity:1;" d="M 18.429688 16.421875 L 4.390625 16.421875 C 3.496094 16.421875 2.773438 15.695312 2.773438 14.804688 L 2.773438 1.9375 C 2.773438 1.042969 3.5 0.320312 4.390625 0.320312 L 18.433594 0.320312 C 19.324219 0.320312 20.050781 1.046875 20.050781 1.9375 L 20.050781 14.804688 C 20.046875 15.699219 19.320312 16.421875 18.429688 16.421875 Z M 4.390625 1.398438 C 4.09375 1.398438 3.851562 1.640625 3.851562 1.9375 L 3.851562 14.804688 C 3.851562 15.105469 4.09375 15.34375 4.390625 15.34375 L 18.433594 15.34375 C 18.730469 15.34375 18.972656 15.101562 18.972656 14.804688 L 18.972656 1.9375 C 18.972656 1.636719 18.730469 1.398438 18.433594 1.398438 Z M 4.390625 1.398438 "/>
<path style=" stroke:none;fill-rule:nonzero;fill:rgb(0%,0%,0%);fill-opacity:1;" d="M 6.996094 18.027344 C 8.25 18.027344 9.265625 19.039062 9.265625 20.292969 C 9.265625 21.546875 8.25 22.5625 6.996094 22.5625 C 5.742188 22.5625 4.726562 21.546875 4.726562 20.292969 C 4.726562 19.039062 5.742188 18.027344 6.996094 18.027344 Z M 6.996094 18.027344 "/>
<path style=" stroke:none;fill-rule:nonzero;fill:rgb(0%,0%,0%);fill-opacity:1;" d="M 4.363281 27.742188 C 4.296875 27.121094 4.421875 26.609375 4.671875 26.179688 L 4.671875 27.742188 L 6.980469 27.742188 L 6.441406 27.003906 L 6.988281 23.347656 L 7 23.347656 L 7.546875 27.003906 L 7.007812 27.742188 L 9.316406 27.742188 L 9.316406 26.183594 C 9.5625 26.609375 9.6875 27.121094 9.621094 27.742188 L 11.394531 27.742188 C 11.601562 25.019531 9.367188 23.644531 8.503906 23.117188 C 8.464844 23.09375 8.425781 23.074219 8.382812 23.058594 C 8.132812 22.890625 7.847656 22.769531 7.558594 22.695312 L 6.996094 23.265625 L 6.449219 22.6875 C 6.445312 22.6875 6.445312 22.6875 6.441406 22.6875 C 6.148438 22.757812 5.855469 22.886719 5.601562 23.058594 C 5.5625 23.074219 5.519531 23.089844 5.484375 23.117188 C 4.621094 23.648438 2.386719 25.019531 2.59375 27.742188 Z M 4.363281 27.742188 "/>
<path style=" stroke:none;fill-rule:nonzero;fill:rgb(0%,0%,0%);fill-opacity:1;" d="M 15.828125 18.027344 C 17.082031 18.027344 18.097656 19.039062 18.097656 20.292969 C 18.097656 21.546875 17.082031 22.5625 15.828125 22.5625 C 14.574219 22.5625 13.558594 21.546875 13.558594 20.292969 C 13.558594 19.039062 14.574219 18.027344 15.828125 18.027344 Z M 15.828125 18.027344 "/>
<path style=" stroke:none;fill-rule:nonzero;fill:rgb(0%,0%,0%);fill-opacity:1;" d="M 13.195312 27.742188 C 13.128906 27.121094 13.253906 26.609375 13.503906 26.179688 L 13.503906 27.742188 L 15.8125 27.742188 L 15.273438 27.003906 L 15.820312 23.347656 L 15.832031 23.347656 L 16.378906 27.003906 L 15.839844 27.742188 L 18.148438 27.742188 L 18.148438 26.183594 C 18.394531 26.609375 18.519531 27.121094 18.453125 27.742188 L 20.226562 27.742188 C 20.433594 25.019531 18.199219 23.644531 17.335938 23.117188 C 17.296875 23.09375 17.253906 23.074219 17.214844 23.058594 C 16.964844 22.890625 16.679688 22.769531 16.390625 22.695312 L 15.828125 23.265625 L 15.28125 22.6875 C 15.277344 22.6875 15.277344 22.6875 15.273438 22.6875 C 14.980469 22.757812 14.6875 22.886719 14.433594 23.058594 C 14.394531 23.074219 14.351562 23.089844 14.316406 23.117188 C 13.453125 23.648438 11.21875 25.019531 11.425781 27.742188 Z M 13.195312 27.742188 "/>
<path style=" stroke:none;fill-rule:nonzero;fill:rgb(0%,0%,0%);fill-opacity:1;" d="M 1.714844 28.449219 L 27.65625 28.449219 L 27.65625 31.679688 L 1.714844 31.679688 Z M 1.714844 28.449219 "/>
<path style=" stroke:none;fill-rule:nonzero;fill:rgb(0%,0%,0%);fill-opacity:1;" d="M 15.300781 8.902344 L 14.851562 8.734375 C 14.886719 8.40625 14.875 8.070312 14.8125 7.738281 L 15.246094 7.535156 C 15.519531 7.410156 15.636719 7.089844 15.511719 6.8125 L 15.257812 6.257812 C 15.132812 5.988281 14.808594 5.867188 14.539062 5.992188 L 14.097656 6.195312 C 13.886719 5.929688 13.636719 5.703125 13.363281 5.515625 L 13.53125 5.066406 C 13.632812 4.785156 13.488281 4.46875 13.207031 4.367188 L 12.632812 4.15625 C 12.363281 4.058594 12.035156 4.203125 11.9375 4.480469 L 11.777344 4.929688 C 11.445312 4.894531 11.109375 4.90625 10.777344 4.964844 L 10.574219 4.53125 C 10.453125 4.257812 10.128906 4.136719 9.851562 4.265625 L 9.300781 4.523438 C 9.027344 4.644531 8.90625 4.972656 9.035156 5.246094 L 9.234375 5.679688 C 8.96875 5.894531 8.742188 6.140625 8.558594 6.414062 L 8.105469 6.25 C 7.832031 6.148438 7.507812 6.296875 7.40625 6.570312 L 7.195312 7.140625 C 7.140625 7.28125 7.148438 7.425781 7.210938 7.558594 C 7.269531 7.691406 7.378906 7.792969 7.515625 7.839844 L 7.96875 8.007812 C 7.933594 8.335938 7.941406 8.671875 8.007812 9.003906 L 7.570312 9.207031 C 7.300781 9.332031 7.175781 9.65625 7.304688 9.925781 L 7.5625 10.480469 C 7.6875 10.753906 8.007812 10.871094 8.285156 10.746094 L 8.722656 10.542969 C 8.9375 10.808594 9.183594 11.035156 9.460938 11.222656 L 9.292969 11.671875 C 9.242188 11.8125 9.246094 11.957031 9.308594 12.089844 C 9.371094 12.222656 9.476562 12.324219 9.617188 12.375 L 10.1875 12.585938 C 10.324219 12.636719 10.46875 12.628906 10.601562 12.570312 C 10.734375 12.507812 10.835938 12.398438 10.882812 12.261719 L 11.050781 11.8125 C 11.378906 11.847656 11.714844 11.835938 12.046875 11.773438 L 12.25 12.207031 C 12.375 12.480469 12.699219 12.597656 12.972656 12.472656 L 13.527344 12.21875 C 13.796875 12.09375 13.921875 11.769531 13.792969 11.496094 L 13.589844 11.058594 C 13.855469 10.84375 14.082031 10.597656 14.269531 10.324219 L 14.71875 10.488281 C 14.859375 10.539062 15.003906 10.535156 15.136719 10.472656 C 15.265625 10.414062 15.371094 10.304688 15.417969 10.167969 L 15.628906 9.597656 C 15.726562 9.320312 15.585938 9.007812 15.300781 8.902344 Z M 12.308594 10.328125 C 12.027344 10.457031 11.722656 10.523438 11.410156 10.523438 C 10.574219 10.523438 9.804688 10.03125 9.457031 9.273438 C 8.960938 8.195312 9.433594 6.914062 10.511719 6.417969 C 10.796875 6.289062 11.101562 6.222656 11.410156 6.222656 C 12.25 6.222656 13.019531 6.714844 13.367188 7.472656 C 13.859375 8.546875 13.390625 9.828125 12.308594 10.328125 Z M 12.308594 10.328125 "/>
</g>
</svg>
