<?xml version="1.0" encoding="UTF-8"?>
<svg xmlns="http://www.w3.org/2000/svg" xmlns:xlink="http://www.w3.org/1999/xlink" width="16pt" height="16pt" viewBox="0 0 16 16" version="1.1">
<g id="surface1">
<path style=" stroke:none;fill-rule:nonzero;fill:rgb(0%,0%,0%);fill-opacity:1;" d="M 13.304688 3.414062 C 13.285156 3.402344 13.265625 3.394531 13.246094 3.386719 C 13.089844 3.285156 12.914062 3.207031 12.734375 3.164062 L 12.378906 3.523438 L 12.03125 3.160156 C 12.03125 3.160156 12.027344 3.160156 12.027344 3.160156 C 11.859375 3.203125 11.691406 3.273438 11.535156 3.367188 C 11.496094 3.378906 11.460938 3.394531 11.425781 3.414062 C 11.203125 3.539062 10.992188 3.5625 10.761719 3.492188 C 9.996094 3.253906 9.28125 2.085938 9.070312 1.65625 C 9.015625 1.539062 8.925781 1.457031 8.816406 1.402344 L 8.664062 1.351562 C 8.554688 1.332031 8.4375 1.34375 8.328125 1.398438 C 8.054688 1.53125 7.9375 1.867188 8.070312 2.140625 C 8.105469 2.210938 8.226562 2.453125 8.421875 2.761719 L 8.554688 2.957031 C 8.964844 3.554688 9.613281 4.296875 10.425781 4.554688 C 10.585938 4.601562 10.75 4.632812 10.910156 4.640625 L 10.910156 7.570312 C 10.910156 7.722656 10.941406 7.863281 10.992188 7.992188 C 10.988281 8.019531 10.984375 8.046875 10.984375 8.078125 L 10.984375 13.402344 C 10.984375 13.765625 11.277344 14.0625 11.640625 14.0625 C 12.003906 14.0625 12.300781 13.765625 12.300781 13.402344 L 12.300781 8.832031 C 12.324219 8.832031 12.351562 8.835938 12.378906 8.835938 C 12.382812 8.835938 12.386719 8.835938 12.394531 8.835938 L 12.394531 13.402344 C 12.394531 13.765625 12.6875 14.0625 13.050781 14.0625 C 13.414062 14.0625 13.707031 13.765625 13.707031 13.402344 L 13.707031 8.175781 C 13.742188 8.210938 13.78125 8.242188 13.824219 8.265625 C 13.910156 8.3125 14 8.332031 14.089844 8.332031 C 14.289062 8.332031 14.480469 8.226562 14.582031 8.042969 C 16.148438 5.160156 14.007812 3.84375 13.304688 3.414062 Z M 12.382812 6.359375 L 12.375 6.359375 L 12.03125 5.886719 L 12.375 3.574219 L 12.382812 3.574219 L 12.726562 5.886719 Z M 13.84375 6.988281 L 13.84375 5.398438 C 14.058594 5.800781 14.105469 6.308594 13.84375 6.988281 Z M 13.84375 6.988281 "/>
<path style=" stroke:none;fill-rule:nonzero;fill:rgb(0%,0%,0%);fill-opacity:1;" d="M 12.378906 0.214844 C 13.167969 0.214844 13.808594 0.855469 13.808594 1.644531 C 13.808594 2.4375 13.167969 3.078125 12.378906 3.078125 C 11.585938 3.078125 10.945312 2.4375 10.945312 1.644531 C 10.945312 0.855469 11.585938 0.214844 12.378906 0.214844 Z M 12.378906 0.214844 "/>
<path style=" stroke:none;fill-rule:nonzero;fill:rgb(0%,0%,0%);fill-opacity:1;" d="M 9.214844 8.210938 L 2.195312 8.210938 C 1.75 8.210938 1.386719 7.847656 1.386719 7.402344 L 1.386719 0.96875 C 1.386719 0.523438 1.75 0.160156 2.195312 0.160156 L 9.214844 0.160156 C 9.664062 0.160156 10.027344 0.523438 10.027344 0.96875 L 10.027344 7.402344 C 10.023438 7.847656 9.660156 8.210938 9.214844 8.210938 Z M 2.195312 0.699219 C 2.046875 0.699219 1.925781 0.820312 1.925781 0.96875 L 1.925781 7.402344 C 1.925781 7.550781 2.046875 7.671875 2.195312 7.671875 L 9.214844 7.671875 C 9.363281 7.671875 9.488281 7.550781 9.488281 7.402344 L 9.488281 0.96875 C 9.488281 0.820312 9.363281 0.699219 9.214844 0.699219 Z M 2.195312 0.699219 "/>
<path style=" stroke:none;fill-rule:nonzero;fill:rgb(0%,0%,0%);fill-opacity:1;" d="M 3.496094 9.011719 C 4.125 9.011719 4.632812 9.519531 4.632812 10.148438 C 4.632812 10.773438 4.125 11.28125 3.496094 11.28125 C 2.871094 11.28125 2.363281 10.773438 2.363281 10.148438 C 2.363281 9.519531 2.871094 9.011719 3.496094 9.011719 Z M 3.496094 9.011719 "/>
<path style=" stroke:none;fill-rule:nonzero;fill:rgb(0%,0%,0%);fill-opacity:1;" d="M 2.183594 13.871094 C 2.148438 13.558594 2.210938 13.304688 2.335938 13.089844 L 2.335938 13.871094 L 3.488281 13.871094 L 3.222656 13.503906 L 3.496094 11.671875 L 3.5 11.671875 L 3.773438 13.503906 L 3.503906 13.871094 L 4.65625 13.871094 L 4.65625 13.089844 C 4.78125 13.304688 4.84375 13.558594 4.808594 13.871094 L 5.699219 13.871094 C 5.800781 12.507812 4.683594 11.824219 4.25 11.558594 C 4.230469 11.546875 4.210938 11.539062 4.191406 11.53125 C 4.066406 11.445312 3.921875 11.382812 3.777344 11.347656 L 3.496094 11.632812 L 3.222656 11.34375 C 3.074219 11.378906 2.929688 11.441406 2.800781 11.53125 C 2.78125 11.539062 2.761719 11.546875 2.742188 11.558594 C 2.308594 11.824219 1.195312 12.511719 1.296875 13.871094 Z M 2.183594 13.871094 "/>
<path style=" stroke:none;fill-rule:nonzero;fill:rgb(0%,0%,0%);fill-opacity:1;" d="M 7.914062 9.011719 C 8.539062 9.011719 9.046875 9.519531 9.046875 10.148438 C 9.046875 10.773438 8.539062 11.28125 7.914062 11.28125 C 7.285156 11.28125 6.777344 10.773438 6.777344 10.148438 C 6.777344 9.519531 7.285156 9.011719 7.914062 9.011719 Z M 7.914062 9.011719 "/>
<path style=" stroke:none;fill-rule:nonzero;fill:rgb(0%,0%,0%);fill-opacity:1;" d="M 6.597656 13.871094 C 6.566406 13.558594 6.628906 13.304688 6.753906 13.089844 L 6.753906 13.871094 L 7.90625 13.871094 L 7.636719 13.503906 L 7.910156 11.671875 L 7.914062 11.671875 L 8.1875 13.503906 L 7.921875 13.871094 L 9.074219 13.871094 L 9.074219 13.089844 C 9.195312 13.304688 9.257812 13.558594 9.226562 13.871094 L 10.113281 13.871094 C 10.214844 12.507812 9.097656 11.824219 8.667969 11.558594 C 8.648438 11.546875 8.628906 11.539062 8.609375 11.53125 C 8.480469 11.445312 8.339844 11.382812 8.195312 11.347656 L 7.914062 11.632812 L 7.640625 11.34375 C 7.636719 11.34375 7.636719 11.34375 7.636719 11.34375 C 7.488281 11.378906 7.34375 11.441406 7.214844 11.53125 C 7.195312 11.539062 7.175781 11.546875 7.160156 11.558594 C 6.726562 11.824219 5.609375 12.511719 5.710938 13.871094 Z M 6.597656 13.871094 "/>
<path style=" stroke:none;fill-rule:nonzero;fill:rgb(0%,0%,0%);fill-opacity:1;" d="M 0.859375 14.222656 L 13.828125 14.222656 L 13.828125 15.839844 L 0.859375 15.839844 Z M 0.859375 14.222656 "/>
<path style=" stroke:none;fill-rule:nonzero;fill:rgb(0%,0%,0%);fill-opacity:1;" d="M 7.652344 4.453125 L 7.425781 4.367188 C 7.441406 4.203125 7.4375 4.035156 7.40625 3.867188 L 7.625 3.769531 C 7.761719 3.707031 7.820312 3.542969 7.757812 3.40625 L 7.628906 3.128906 C 7.566406 2.992188 7.40625 2.933594 7.269531 2.996094 L 7.050781 3.097656 C 6.941406 2.964844 6.820312 2.851562 6.679688 2.757812 L 6.765625 2.53125 C 6.816406 2.390625 6.742188 2.234375 6.601562 2.183594 L 6.316406 2.078125 C 6.179688 2.027344 6.019531 2.101562 5.96875 2.238281 L 5.886719 2.464844 C 5.722656 2.445312 5.554688 2.453125 5.390625 2.484375 L 5.289062 2.265625 C 5.226562 2.128906 5.0625 2.070312 4.925781 2.132812 L 4.648438 2.261719 C 4.511719 2.324219 4.453125 2.488281 4.515625 2.621094 L 4.617188 2.839844 C 4.484375 2.945312 4.371094 3.070312 4.277344 3.207031 L 4.054688 3.125 C 3.917969 3.074219 3.753906 3.148438 3.703125 3.285156 L 3.597656 3.570312 C 3.570312 3.640625 3.574219 3.714844 3.605469 3.777344 C 3.636719 3.84375 3.691406 3.894531 3.757812 3.921875 L 3.984375 4.003906 C 3.964844 4.167969 3.972656 4.335938 4.003906 4.503906 L 3.785156 4.601562 C 3.648438 4.664062 3.589844 4.828125 3.652344 4.964844 L 3.78125 5.238281 C 3.84375 5.375 4.003906 5.433594 4.140625 5.371094 L 4.363281 5.273438 C 4.46875 5.40625 4.59375 5.519531 4.730469 5.609375 L 4.644531 5.835938 C 4.621094 5.90625 4.625 5.980469 4.65625 6.042969 C 4.683594 6.109375 4.738281 6.160156 4.808594 6.1875 L 5.09375 6.292969 C 5.160156 6.320312 5.234375 6.316406 5.300781 6.285156 C 5.367188 6.253906 5.417969 6.199219 5.441406 6.132812 L 5.523438 5.90625 C 5.691406 5.921875 5.859375 5.917969 6.023438 5.886719 L 6.125 6.105469 C 6.1875 6.238281 6.347656 6.300781 6.488281 6.238281 L 6.761719 6.109375 C 6.898438 6.046875 6.960938 5.886719 6.894531 5.746094 L 6.796875 5.53125 C 6.929688 5.421875 7.042969 5.300781 7.132812 5.160156 L 7.359375 5.246094 C 7.429688 5.269531 7.503906 5.265625 7.566406 5.238281 C 7.632812 5.207031 7.683594 5.152344 7.707031 5.085938 L 7.8125 4.796875 C 7.863281 4.660156 7.792969 4.503906 7.652344 4.453125 Z M 6.15625 5.164062 C 6.011719 5.230469 5.859375 5.261719 5.707031 5.261719 C 5.285156 5.261719 4.902344 5.015625 4.726562 4.636719 C 4.480469 4.097656 4.71875 3.457031 5.257812 3.210938 C 5.398438 3.144531 5.550781 3.109375 5.707031 3.109375 C 6.125 3.109375 6.507812 3.355469 6.683594 3.734375 C 6.929688 4.273438 6.695312 4.914062 6.15625 5.164062 Z M 6.15625 5.164062 "/>
</g>
</svg>
