<?xml version="1.0" encoding="UTF-8"?>
<svg xmlns="http://www.w3.org/2000/svg" xmlns:xlink="http://www.w3.org/1999/xlink" width="16pt" height="16pt" viewBox="0 0 16 16" version="1.1">
<g id="surface1">
<path style=" stroke:none;fill-rule:nonzero;fill:rgb(0%,0%,0%);fill-opacity:1;" d="M 11.917969 13.242188 L 4.070312 13.242188 C 3.824219 13.242188 3.625 13.4375 3.625 13.6875 C 3.625 13.929688 3.824219 14.132812 4.070312 14.132812 L 11.921875 14.132812 C 12.167969 14.132812 12.367188 13.933594 12.367188 13.6875 C 12.363281 13.4375 12.167969 13.242188 11.917969 13.242188 Z M 11.917969 13.242188 "/>
<path style=" stroke:none;fill-rule:nonzero;fill:rgb(0%,0%,0%);fill-opacity:1;" d="M 11.917969 11.292969 L 4.070312 11.292969 C 3.824219 11.292969 3.625 11.488281 3.625 11.738281 C 3.625 11.980469 3.824219 12.183594 4.070312 12.183594 L 11.921875 12.183594 C 12.167969 12.183594 12.367188 11.984375 12.367188 11.738281 C 12.363281 11.488281 12.167969 11.292969 11.917969 11.292969 Z M 11.917969 11.292969 "/>
<path style=" stroke:none;fill-rule:nonzero;fill:rgb(0%,0%,0%);fill-opacity:1;" d="M 7.996094 1.867188 C 6.941406 1.867188 6.078125 2.726562 6.078125 3.785156 C 6.078125 4.839844 6.941406 5.695312 7.996094 5.695312 C 9.046875 5.695312 9.910156 4.839844 9.910156 3.78125 C 9.910156 2.726562 9.046875 1.867188 7.996094 1.867188 Z M 7.996094 4.804688 C 7.433594 4.804688 6.972656 4.34375 6.972656 3.78125 C 6.972656 3.21875 7.429688 2.757812 7.996094 2.757812 C 8.558594 2.757812 9.015625 3.21875 9.015625 3.78125 C 9.015625 4.34375 8.554688 4.804688 7.996094 4.804688 Z M 7.996094 4.804688 "/>
<path style=" stroke:none;fill-rule:nonzero;fill:rgb(0%,0%,0%);fill-opacity:1;" d="M 10.539062 6.660156 C 8.910156 6.027344 7.082031 6.027344 5.457031 6.660156 C 4.925781 6.867188 4.570312 7.398438 4.570312 7.980469 L 4.570312 9.785156 C 4.566406 10.03125 4.765625 10.230469 5.011719 10.230469 L 10.980469 10.230469 C 11.226562 10.230469 11.425781 10.035156 11.425781 9.785156 L 11.425781 7.980469 C 11.425781 7.398438 11.070312 6.867188 10.539062 6.660156 Z M 10.539062 9.34375 L 5.457031 9.34375 L 5.457031 7.980469 C 5.457031 7.765625 5.585938 7.566406 5.777344 7.492188 C 7.199219 6.941406 8.796875 6.941406 10.214844 7.492188 C 10.410156 7.566406 10.539062 7.761719 10.539062 7.980469 Z M 10.539062 9.34375 "/>
<path style=" stroke:none;fill-rule:nonzero;fill:rgb(0%,0%,0%);fill-opacity:1;" d="M 12.761719 0 L 5.359375 0 C 5.015625 0 4.695312 0.132812 4.453125 0.375 L 2.324219 2.503906 C 2.082031 2.746094 1.949219 3.066406 1.949219 3.410156 L 1.949219 14.714844 C 1.949219 15.421875 2.527344 16 3.234375 16 L 12.765625 16 C 13.472656 16 14.050781 15.421875 14.050781 14.714844 L 14.050781 1.285156 C 14.042969 0.578125 13.464844 0 12.761719 0 Z M 4.566406 1.519531 L 4.566406 2.621094 L 3.464844 2.621094 Z M 13.152344 4.761719 L 11.5 4.761719 C 11.253906 4.761719 11.054688 4.960938 11.054688 5.207031 C 11.054688 5.453125 11.25 5.652344 11.5 5.652344 L 13.152344 5.652344 L 13.152344 6.441406 L 12.546875 6.441406 C 12.304688 6.441406 12.101562 6.640625 12.101562 6.886719 C 12.101562 7.132812 12.300781 7.332031 12.546875 7.332031 L 13.152344 7.332031 L 13.152344 14.714844 C 13.152344 14.933594 12.976562 15.113281 12.761719 15.113281 L 3.226562 15.113281 C 3.011719 15.113281 2.835938 14.933594 2.835938 14.71875 L 2.835938 3.507812 L 5.011719 3.507812 C 5.257812 3.507812 5.457031 3.308594 5.457031 3.0625 L 5.457031 0.886719 L 12.761719 0.886719 C 12.976562 0.886719 13.152344 1.0625 13.152344 1.277344 Z M 13.152344 4.761719 "/>
</g>
</svg>
