<?xml version="1.0" encoding="UTF-8"?>
<svg xmlns="http://www.w3.org/2000/svg" xmlns:xlink="http://www.w3.org/1999/xlink" width="32pt" height="32pt" viewBox="0 0 32 32" version="1.1">
<g id="surface1">
<path style=" stroke:none;fill-rule:nonzero;fill:rgb(0%,0%,0%);fill-opacity:1;" d="M 23.835938 26.480469 L 8.140625 26.480469 C 7.652344 26.480469 7.25 26.878906 7.25 27.371094 C 7.25 27.863281 7.648438 28.261719 8.140625 28.261719 L 23.84375 28.261719 C 24.332031 28.261719 24.734375 27.867188 24.734375 27.371094 C 24.726562 26.878906 24.332031 26.480469 23.835938 26.480469 Z M 23.835938 26.480469 "/>
<path style=" stroke:none;fill-rule:nonzero;fill:rgb(0%,0%,0%);fill-opacity:1;" d="M 23.835938 22.582031 L 8.140625 22.582031 C 7.652344 22.582031 7.25 22.976562 7.25 23.472656 C 7.25 23.964844 7.648438 24.363281 8.140625 24.363281 L 23.84375 24.363281 C 24.332031 24.363281 24.734375 23.96875 24.734375 23.472656 C 24.726562 22.976562 24.332031 22.582031 23.835938 22.582031 Z M 23.835938 22.582031 "/>
<path style=" stroke:none;fill-rule:nonzero;fill:rgb(0%,0%,0%);fill-opacity:1;" d="M 15.988281 3.738281 C 13.882812 3.738281 12.15625 5.453125 12.15625 7.566406 C 12.15625 9.675781 13.882812 11.394531 15.988281 11.394531 C 18.097656 11.394531 19.820312 9.675781 19.820312 7.5625 C 19.820312 5.449219 18.097656 3.738281 15.988281 3.738281 Z M 15.988281 9.609375 C 14.867188 9.609375 13.945312 8.683594 13.945312 7.5625 C 13.945312 6.441406 14.863281 5.519531 15.988281 5.519531 C 17.117188 5.519531 18.035156 6.441406 18.035156 7.5625 C 18.035156 8.683594 17.113281 9.609375 15.988281 9.609375 Z M 15.988281 9.609375 "/>
<path style=" stroke:none;fill-rule:nonzero;fill:rgb(0%,0%,0%);fill-opacity:1;" d="M 21.074219 13.316406 C 17.824219 12.054688 14.164062 12.054688 10.914062 13.316406 C 9.851562 13.734375 9.136719 14.792969 9.136719 15.957031 L 9.136719 19.574219 C 9.132812 20.0625 9.535156 20.464844 10.023438 20.464844 L 21.960938 20.464844 C 22.449219 20.464844 22.851562 20.070312 22.851562 19.574219 L 22.851562 15.957031 C 22.851562 14.792969 22.140625 13.734375 21.074219 13.316406 Z M 21.074219 18.6875 L 10.914062 18.6875 L 10.914062 15.964844 C 10.914062 15.53125 11.171875 15.128906 11.558594 14.984375 C 14.398438 13.882812 17.589844 13.882812 20.433594 14.984375 C 20.816406 15.136719 21.074219 15.527344 21.074219 15.964844 Z M 21.074219 18.6875 "/>
<path style=" stroke:none;fill-rule:nonzero;fill:rgb(0%,0%,0%);fill-opacity:1;" d="M 25.523438 0 L 10.71875 0 C 10.035156 0 9.390625 0.261719 8.90625 0.75 L 4.648438 5.007812 C 4.164062 5.492188 3.898438 6.132812 3.898438 6.820312 L 3.898438 29.429688 C 3.898438 30.847656 5.054688 32 6.472656 32 L 25.527344 32 C 26.945312 32 28.101562 30.847656 28.101562 29.429688 L 28.101562 2.570312 C 28.085938 1.152344 26.929688 0 25.523438 0 Z M 9.132812 3.035156 L 9.132812 5.238281 L 6.929688 5.238281 Z M 26.308594 9.523438 L 23 9.523438 C 22.507812 9.523438 22.109375 9.917969 22.109375 10.414062 C 22.109375 10.902344 22.503906 11.304688 23 11.304688 L 26.308594 11.304688 L 26.308594 12.886719 L 25.097656 12.886719 C 24.605469 12.886719 24.207031 13.28125 24.207031 13.777344 C 24.207031 14.265625 24.601562 14.667969 25.097656 14.667969 L 26.308594 14.667969 L 26.308594 29.433594 C 26.308594 29.871094 25.957031 30.222656 25.523438 30.222656 L 6.457031 30.222656 C 6.023438 30.222656 5.671875 29.871094 5.671875 29.4375 L 5.671875 7.015625 L 10.023438 7.015625 C 10.515625 7.015625 10.914062 6.621094 10.914062 6.125 L 10.914062 1.769531 L 25.523438 1.769531 C 25.957031 1.769531 26.308594 2.125 26.308594 2.554688 Z M 26.308594 9.523438 "/>
</g>
</svg>
